<mxfile host="app.diagrams.net" agent="Mozilla/5.0 (Windows NT 10.0; Win64; x64) AppleWebKit/537.36 (KHTML, like Gecko) Chrome/128.0.0.0 YaBrowser/24.10.0.0 Safari/537.36" version="24.8.0">
  <diagram name="Страница — 1" id="W4HEZuL9qaBWg7W_zagM">
    <mxGraphModel dx="1434" dy="829" grid="1" gridSize="10" guides="1" tooltips="1" connect="1" arrows="1" fold="1" page="1" pageScale="1" pageWidth="827" pageHeight="1169" math="0" shadow="0">
      <root>
        <mxCell id="0" />
        <mxCell id="1" parent="0" />
        <mxCell id="I3YXvyh1CzABkqqKxCkj-1" value="Hero" style="swimlane;fontStyle=0;childLayout=stackLayout;horizontal=1;startSize=26;horizontalStack=0;resizeParent=1;resizeParentMax=0;resizeLast=0;collapsible=1;marginBottom=0;align=center;fontSize=14;" vertex="1" parent="1">
          <mxGeometry x="250" y="150" width="160" height="146" as="geometry" />
        </mxCell>
        <mxCell id="I3YXvyh1CzABkqqKxCkj-2" value="Name" style="text;strokeColor=none;fillColor=none;spacingLeft=4;spacingRight=4;overflow=hidden;rotatable=0;points=[[0,0.5],[1,0.5]];portConstraint=eastwest;fontSize=12;whiteSpace=wrap;html=1;" vertex="1" parent="I3YXvyh1CzABkqqKxCkj-1">
          <mxGeometry y="26" width="160" height="30" as="geometry" />
        </mxCell>
        <mxCell id="I3YXvyh1CzABkqqKxCkj-3" value="Winrates with other heroes" style="text;strokeColor=none;fillColor=none;spacingLeft=4;spacingRight=4;overflow=hidden;rotatable=0;points=[[0,0.5],[1,0.5]];portConstraint=eastwest;fontSize=12;whiteSpace=wrap;html=1;" vertex="1" parent="I3YXvyh1CzABkqqKxCkj-1">
          <mxGeometry y="56" width="160" height="30" as="geometry" />
        </mxCell>
        <mxCell id="I3YXvyh1CzABkqqKxCkj-18" value="Best items to this hero" style="text;strokeColor=none;fillColor=none;spacingLeft=4;spacingRight=4;overflow=hidden;rotatable=0;points=[[0,0.5],[1,0.5]];portConstraint=eastwest;fontSize=12;whiteSpace=wrap;html=1;" vertex="1" parent="I3YXvyh1CzABkqqKxCkj-1">
          <mxGeometry y="86" width="160" height="30" as="geometry" />
        </mxCell>
        <mxCell id="I3YXvyh1CzABkqqKxCkj-19" value="Best items against this hero" style="text;strokeColor=none;fillColor=none;spacingLeft=4;spacingRight=4;overflow=hidden;rotatable=0;points=[[0,0.5],[1,0.5]];portConstraint=eastwest;fontSize=12;whiteSpace=wrap;html=1;" vertex="1" parent="I3YXvyh1CzABkqqKxCkj-1">
          <mxGeometry y="116" width="160" height="30" as="geometry" />
        </mxCell>
        <mxCell id="I3YXvyh1CzABkqqKxCkj-5" value="Build" style="swimlane;fontStyle=0;childLayout=stackLayout;horizontal=1;startSize=26;horizontalStack=0;resizeParent=1;resizeParentMax=0;resizeLast=0;collapsible=1;marginBottom=0;align=center;fontSize=14;" vertex="1" parent="1">
          <mxGeometry x="440" y="180" width="160" height="86" as="geometry" />
        </mxCell>
        <mxCell id="I3YXvyh1CzABkqqKxCkj-6" value="Items" style="text;strokeColor=none;fillColor=none;spacingLeft=4;spacingRight=4;overflow=hidden;rotatable=0;points=[[0,0.5],[1,0.5]];portConstraint=eastwest;fontSize=12;whiteSpace=wrap;html=1;" vertex="1" parent="I3YXvyh1CzABkqqKxCkj-5">
          <mxGeometry y="26" width="160" height="30" as="geometry" />
        </mxCell>
        <mxCell id="I3YXvyh1CzABkqqKxCkj-20" value="Timings to buy items" style="text;strokeColor=none;fillColor=none;spacingLeft=4;spacingRight=4;overflow=hidden;rotatable=0;points=[[0,0.5],[1,0.5]];portConstraint=eastwest;fontSize=12;whiteSpace=wrap;html=1;" vertex="1" parent="I3YXvyh1CzABkqqKxCkj-5">
          <mxGeometry y="56" width="160" height="30" as="geometry" />
        </mxCell>
        <mxCell id="I3YXvyh1CzABkqqKxCkj-8" value="Item" style="swimlane;fontStyle=0;childLayout=stackLayout;horizontal=1;startSize=26;horizontalStack=0;resizeParent=1;resizeParentMax=0;resizeLast=0;collapsible=1;marginBottom=0;align=center;fontSize=14;" vertex="1" parent="1">
          <mxGeometry x="630" y="195" width="160" height="56" as="geometry">
            <mxRectangle x="530" y="165" width="70" height="30" as="alternateBounds" />
          </mxGeometry>
        </mxCell>
        <mxCell id="I3YXvyh1CzABkqqKxCkj-9" value="Name" style="text;strokeColor=none;fillColor=none;spacingLeft=4;spacingRight=4;overflow=hidden;rotatable=0;points=[[0,0.5],[1,0.5]];portConstraint=eastwest;fontSize=12;whiteSpace=wrap;html=1;" vertex="1" parent="I3YXvyh1CzABkqqKxCkj-8">
          <mxGeometry y="26" width="160" height="30" as="geometry" />
        </mxCell>
        <mxCell id="I3YXvyh1CzABkqqKxCkj-11" value="Match" style="swimlane;fontStyle=0;childLayout=stackLayout;horizontal=1;startSize=26;horizontalStack=0;resizeParent=1;resizeParentMax=0;resizeLast=0;collapsible=1;marginBottom=0;align=center;fontSize=14;" vertex="1" parent="1">
          <mxGeometry x="60" y="165" width="160" height="116" as="geometry">
            <mxRectangle x="80" y="300" width="80" height="30" as="alternateBounds" />
          </mxGeometry>
        </mxCell>
        <mxCell id="I3YXvyh1CzABkqqKxCkj-12" value="Heroes in first team" style="text;strokeColor=none;fillColor=none;spacingLeft=4;spacingRight=4;overflow=hidden;rotatable=0;points=[[0,0.5],[1,0.5]];portConstraint=eastwest;fontSize=12;whiteSpace=wrap;html=1;" vertex="1" parent="I3YXvyh1CzABkqqKxCkj-11">
          <mxGeometry y="26" width="160" height="30" as="geometry" />
        </mxCell>
        <mxCell id="I3YXvyh1CzABkqqKxCkj-13" value="Heroes in second team" style="text;strokeColor=none;fillColor=none;spacingLeft=4;spacingRight=4;overflow=hidden;rotatable=0;points=[[0,0.5],[1,0.5]];portConstraint=eastwest;fontSize=12;whiteSpace=wrap;html=1;" vertex="1" parent="I3YXvyh1CzABkqqKxCkj-11">
          <mxGeometry y="56" width="160" height="30" as="geometry" />
        </mxCell>
        <mxCell id="I3YXvyh1CzABkqqKxCkj-15" value="Winner team" style="text;strokeColor=none;fillColor=none;spacingLeft=4;spacingRight=4;overflow=hidden;rotatable=0;points=[[0,0.5],[1,0.5]];portConstraint=eastwest;fontSize=12;whiteSpace=wrap;html=1;" vertex="1" parent="I3YXvyh1CzABkqqKxCkj-11">
          <mxGeometry y="86" width="160" height="30" as="geometry" />
        </mxCell>
        <mxCell id="I3YXvyh1CzABkqqKxCkj-21" value="" style="edgeStyle=entityRelationEdgeStyle;fontSize=12;html=1;endArrow=ERmany;rounded=0;" edge="1" parent="1" source="I3YXvyh1CzABkqqKxCkj-8" target="I3YXvyh1CzABkqqKxCkj-5">
          <mxGeometry width="100" height="100" relative="1" as="geometry">
            <mxPoint x="667" y="390" as="sourcePoint" />
            <mxPoint x="767" y="290" as="targetPoint" />
          </mxGeometry>
        </mxCell>
        <mxCell id="I3YXvyh1CzABkqqKxCkj-22" value="" style="edgeStyle=entityRelationEdgeStyle;fontSize=12;html=1;endArrow=ERmany;rounded=0;" edge="1" parent="1" source="I3YXvyh1CzABkqqKxCkj-5" target="I3YXvyh1CzABkqqKxCkj-1">
          <mxGeometry width="100" height="100" relative="1" as="geometry">
            <mxPoint x="497" y="430" as="sourcePoint" />
            <mxPoint x="597" y="330" as="targetPoint" />
          </mxGeometry>
        </mxCell>
        <mxCell id="I3YXvyh1CzABkqqKxCkj-23" value="" style="edgeStyle=entityRelationEdgeStyle;fontSize=12;html=1;endArrow=ERzeroToMany;endFill=1;rounded=0;" edge="1" parent="1" source="I3YXvyh1CzABkqqKxCkj-1" target="I3YXvyh1CzABkqqKxCkj-11">
          <mxGeometry width="100" height="100" relative="1" as="geometry">
            <mxPoint x="537" y="480" as="sourcePoint" />
            <mxPoint x="637" y="380" as="targetPoint" />
          </mxGeometry>
        </mxCell>
      </root>
    </mxGraphModel>
  </diagram>
</mxfile>
